<svg width="199" height="49" viewBox="0 0 199 49" fill="none" xmlns="http://www.w3.org/2000/svg">
<path fill-rule="evenodd" clip-rule="evenodd" d="M9.53674e-07 43.7936L17.8496 25.9762C17.5491 25.3929 17.3795 24.7312 17.3795 24.0298C17.3795 21.6789 19.2853 19.7731 21.6363 19.7731C23.9872 19.7731 25.893 21.6789 25.893 24.0298C25.893 26.3807 23.9872 28.2865 21.6363 28.2865C20.9261 28.2865 20.2566 28.1127 19.668 27.8051L1.48061 45.9597L1.51882 46C7.05712 43.391 18.2024 38.5851 32.0711 37.0746C32.0892 36.9086 32.1073 36.7378 32.126 36.5623C32.5093 32.9646 33.1025 27.3956 37.3576 20.391L31.7621 14.7955L31.7964 14.7612L25.4114 8.3761C18.4067 12.6312 12.8378 13.2245 9.24009 13.6077L9.23994 13.6077C9.06451 13.6264 8.89377 13.6446 8.72777 13.6627C7.2547 27.1882 2.64715 38.1234 9.53674e-07 43.7936Z" fill="#0052CB"/>
<rect x="30.9576" width="21.0014" height="7.76275" rx="3.88138" transform="rotate(44.8798 30.9576 0)" fill="#0052CB"/>
<path d="M65.3438 10.5625V39H61.5742V10.5625H65.3438ZM75.2656 22.3789V39H71.6523V17.8672H75.0703L75.2656 22.3789ZM74.4062 27.6328L72.9023 27.5742C72.9154 26.1289 73.1302 24.7943 73.5469 23.5703C73.9635 22.3333 74.5495 21.2591 75.3047 20.3477C76.0599 19.4362 76.9583 18.7331 78 18.2383C79.0547 17.7305 80.2201 17.4766 81.4961 17.4766C82.5378 17.4766 83.4753 17.6198 84.3086 17.9062C85.1419 18.1797 85.8516 18.6224 86.4375 19.2344C87.0365 19.8464 87.4922 20.6406 87.8047 21.6172C88.1172 22.5807 88.2734 23.7591 88.2734 25.1523V39H84.6406V25.1133C84.6406 24.0065 84.4779 23.1211 84.1523 22.457C83.8268 21.7799 83.3516 21.2917 82.7266 20.9922C82.1016 20.6797 81.3333 20.5234 80.4219 20.5234C79.5234 20.5234 78.7031 20.7122 77.9609 21.0898C77.2318 21.4674 76.6003 21.9883 76.0664 22.6523C75.5456 23.3164 75.1354 24.0781 74.8359 24.9375C74.5495 25.7839 74.4062 26.6823 74.4062 27.6328ZM97.3945 9V39H93.7617V9H97.3945ZM110.305 17.8672L101.086 27.7305L95.9297 33.082L95.6367 29.2344L99.3281 24.8203L105.891 17.8672H110.305ZM107.004 39L99.4648 28.9219L101.34 25.6992L111.262 39H107.004ZM131.75 29.957H135.5C135.305 31.7539 134.79 33.362 133.957 34.7812C133.124 36.2005 131.945 37.3268 130.422 38.1602C128.898 38.9805 126.997 39.3906 124.719 39.3906C123.052 39.3906 121.535 39.0781 120.168 38.4531C118.814 37.8281 117.648 36.9427 116.672 35.7969C115.695 34.638 114.94 33.2513 114.406 31.6367C113.885 30.0091 113.625 28.1992 113.625 26.207V23.375C113.625 21.3828 113.885 19.5794 114.406 17.9648C114.94 16.3372 115.702 14.944 116.691 13.7852C117.694 12.6263 118.898 11.7344 120.305 11.1094C121.711 10.4844 123.293 10.1719 125.051 10.1719C127.199 10.1719 129.016 10.5755 130.5 11.3828C131.984 12.1901 133.137 13.3099 133.957 14.7422C134.79 16.1615 135.305 17.8086 135.5 19.6836H131.75C131.568 18.3555 131.229 17.2161 130.734 16.2656C130.24 15.3021 129.536 14.5599 128.625 14.0391C127.714 13.5182 126.522 13.2578 125.051 13.2578C123.788 13.2578 122.674 13.4987 121.711 13.9805C120.76 14.4622 119.96 15.1458 119.309 16.0312C118.671 16.9167 118.189 17.9779 117.863 19.2148C117.538 20.4518 117.375 21.8255 117.375 23.3359V26.207C117.375 27.6003 117.518 28.9089 117.805 30.1328C118.104 31.3568 118.553 32.431 119.152 33.3555C119.751 34.2799 120.513 35.0091 121.438 35.543C122.362 36.0638 123.456 36.3242 124.719 36.3242C126.32 36.3242 127.596 36.0703 128.547 35.5625C129.497 35.0547 130.214 34.3255 130.695 33.375C131.19 32.4245 131.542 31.2852 131.75 29.957ZM143.703 21.1875V39H140.09V17.8672H143.605L143.703 21.1875ZM150.305 17.75L150.285 21.1094C149.986 21.0443 149.699 21.0052 149.426 20.9922C149.165 20.9661 148.866 20.9531 148.527 20.9531C147.694 20.9531 146.958 21.0833 146.32 21.3438C145.682 21.6042 145.142 21.9688 144.699 22.4375C144.257 22.9062 143.905 23.4661 143.645 24.1172C143.397 24.7552 143.234 25.4583 143.156 26.2266L142.141 26.8125C142.141 25.5365 142.264 24.3385 142.512 23.2188C142.772 22.099 143.169 21.1094 143.703 20.25C144.237 19.3776 144.914 18.7005 145.734 18.2188C146.568 17.724 147.557 17.4766 148.703 17.4766C148.964 17.4766 149.263 17.5091 149.602 17.5742C149.94 17.6263 150.174 17.6849 150.305 17.75ZM165.324 35.3867V24.5078C165.324 23.6745 165.155 22.9518 164.816 22.3398C164.491 21.7148 163.996 21.2331 163.332 20.8945C162.668 20.556 161.848 20.3867 160.871 20.3867C159.96 20.3867 159.159 20.543 158.469 20.8555C157.792 21.168 157.258 21.5781 156.867 22.0859C156.49 22.5938 156.301 23.1406 156.301 23.7266H152.688C152.688 22.9714 152.883 22.2227 153.273 21.4805C153.664 20.7383 154.224 20.0677 154.953 19.4688C155.695 18.8568 156.581 18.375 157.609 18.0234C158.651 17.6589 159.81 17.4766 161.086 17.4766C162.622 17.4766 163.977 17.737 165.148 18.2578C166.333 18.7786 167.258 19.5664 167.922 20.6211C168.599 21.6628 168.938 22.9714 168.938 24.5469V34.3906C168.938 35.0938 168.996 35.8424 169.113 36.6367C169.243 37.431 169.432 38.1146 169.68 38.6875V39H165.91C165.728 38.5833 165.585 38.0299 165.48 37.3398C165.376 36.6367 165.324 35.9857 165.324 35.3867ZM165.949 26.1875L165.988 28.7266H162.336C161.307 28.7266 160.389 28.8112 159.582 28.9805C158.775 29.1367 158.098 29.3776 157.551 29.7031C157.004 30.0286 156.587 30.4388 156.301 30.9336C156.014 31.4154 155.871 31.9818 155.871 32.6328C155.871 33.2969 156.021 33.9023 156.32 34.4492C156.62 34.9961 157.069 35.4323 157.668 35.7578C158.28 36.0703 159.029 36.2266 159.914 36.2266C161.021 36.2266 161.997 35.9922 162.844 35.5234C163.69 35.0547 164.361 34.4818 164.855 33.8047C165.363 33.1276 165.637 32.4701 165.676 31.832L167.219 33.5703C167.128 34.1172 166.88 34.7227 166.477 35.3867C166.073 36.0508 165.533 36.6888 164.855 37.3008C164.191 37.8997 163.397 38.401 162.473 38.8047C161.561 39.1953 160.533 39.3906 159.387 39.3906C157.954 39.3906 156.698 39.1107 155.617 38.5508C154.549 37.9909 153.716 37.2422 153.117 36.3047C152.531 35.3542 152.238 34.293 152.238 33.1211C152.238 31.9883 152.46 30.9922 152.902 30.1328C153.345 29.2604 153.983 28.5378 154.816 27.9648C155.65 27.3789 156.652 26.9362 157.824 26.6367C158.996 26.3372 160.305 26.1875 161.75 26.1875H165.949ZM180.012 39H176.398V15.6406C176.398 14.1172 176.672 12.8346 177.219 11.793C177.779 10.7383 178.579 9.94401 179.621 9.41016C180.663 8.86328 181.9 8.58984 183.332 8.58984C183.749 8.58984 184.165 8.61589 184.582 8.66797C185.012 8.72005 185.428 8.79818 185.832 8.90234L185.637 11.8516C185.363 11.7865 185.051 11.7409 184.699 11.7148C184.361 11.6888 184.022 11.6758 183.684 11.6758C182.915 11.6758 182.251 11.832 181.691 12.1445C181.145 12.444 180.728 12.8867 180.441 13.4727C180.155 14.0586 180.012 14.7812 180.012 15.6406V39ZM184.504 17.8672V20.6406H173.059V17.8672H184.504ZM197.375 17.8672V20.6406H185.949V17.8672H197.375ZM189.816 12.7305H193.43V33.7656C193.43 34.4818 193.54 35.0221 193.762 35.3867C193.983 35.7513 194.27 35.9922 194.621 36.1094C194.973 36.2266 195.35 36.2852 195.754 36.2852C196.053 36.2852 196.366 36.2591 196.691 36.207C197.03 36.1419 197.284 36.0898 197.453 36.0508L197.473 39C197.186 39.0911 196.809 39.1758 196.34 39.2539C195.884 39.3451 195.331 39.3906 194.68 39.3906C193.794 39.3906 192.98 39.2148 192.238 38.8633C191.496 38.5117 190.904 37.9258 190.461 37.1055C190.031 36.2721 189.816 35.1523 189.816 33.7461V12.7305Z" fill="#0052CB"/>
</svg>
